<svg width="104" height="104" viewBox="0 0 104 104" fill="none" xmlns="http://www.w3.org/2000/svg">
<rect width="104" height="104" rx="52" fill="#3C40BF"/>
<path d="M86.2464 45.3786C84.328 45.0408 83.2431 43.4388 83.4937 41.4983C83.5772 40.908 83.5772 40.4013 83.6607 39.8955C83.7442 39.1363 83.7442 38.3771 83.9112 37.5335C84.0783 36.7743 83.9948 36.2685 83.6607 35.9307C83.4101 35.5929 82.9934 35.4249 82.4931 35.4249C80.2406 35.4249 78.1552 35.5093 75.8192 35.6782C75.0684 35.7627 74.1505 35.7627 73.3162 35.7627C73.3162 36.1004 73.3997 36.4374 73.3997 36.6907C73.4832 37.4499 73.5667 37.9557 73.5667 38.6305V39.0518C73.5667 41.6671 73.4832 44.4505 73.3162 47.1494C73.2326 48.6677 72.2313 49.4269 70.6469 49.1736C69.3123 48.9202 67.8942 48.7522 66.2255 48.5833C64.9744 48.4989 64.2235 49.0891 63.8895 50.4394C63.4727 52.2111 63.5554 53.3917 64.0565 54.0664C64.6403 54.7411 65.6417 54.9945 67.3939 54.91C67.5609 54.91 67.728 54.91 67.8942 54.91H68.3109C68.645 54.91 68.8947 54.91 69.1453 54.91C72.8994 54.91 73.8173 55.9225 73.9843 60.3087C74.0678 61.5737 73.9008 62.7551 73.8173 64.1045C73.7337 64.5259 73.7337 65.117 73.7337 65.5384C73.7337 65.9598 73.6502 66.2976 73.6502 66.8034L73.5667 67.3093C74.3175 67.4782 74.9848 67.5626 75.7357 67.7307C77.6541 68.152 79.4063 68.4898 81.1585 68.6587C82.0764 68.8276 82.8272 68.6587 83.3275 68.1529C83.7442 67.7315 83.9112 66.9723 83.8277 65.9598C83.7442 65.2851 83.6607 64.6104 83.6607 63.8512C83.5772 63.092 83.4937 62.3329 83.4101 61.5737C83.3266 59.7175 84.161 58.4525 85.9132 58.1156C86.9146 57.8623 87.7489 57.7778 88.4997 57.7778C88.8338 55.8381 89 53.8975 89 52.0422C89 49.8492 88.833 47.7405 88.4162 45.5475C87.7481 45.5466 86.9972 45.463 86.2464 45.3786ZM71.4796 68.2382C70.8123 68.1537 70.2285 68.0693 69.4777 67.9848C67.7255 67.7315 65.9741 67.479 64.2219 67.479C63.0543 67.3946 62.22 67.6479 61.8024 68.2382C61.3021 68.8285 61.2186 69.6721 61.3856 70.9371L61.4691 71.3585C61.6362 72.2021 61.8032 73.2146 61.8032 74.1418C61.8032 76.9252 60.5521 78.2755 57.882 78.3591H57.715C56.6301 78.3591 55.379 78.1057 53.9609 77.5999C52.4592 77.0941 51.7084 75.8282 51.8754 74.1418C51.9589 73.636 51.9589 73.2138 52.0424 72.6235C52.126 71.8643 52.126 70.9362 52.3765 70.1771C52.5436 69.4179 52.5436 68.7432 52.2095 68.3209C51.8754 67.9832 51.2081 67.8151 50.7078 67.8151C48.4553 67.8151 46.3699 67.984 44.0339 68.1529C43.1996 68.2373 42.2817 68.3218 41.4474 68.3218C41.5309 68.7432 41.6144 69.081 41.6979 69.5023C41.8649 70.4304 42.032 71.274 42.1147 71.9488C42.2817 73.2138 42.4487 74.4796 42.5314 75.7446C42.6149 78.1066 42.1973 79.6249 41.2803 80.721C40.2789 81.818 38.5276 82.0705 36.2751 81.4802C36.1916 81.4802 36.108 81.4802 36.0245 81.4802H35.941C33.605 81.3113 32.4374 82.4083 32.3539 84.6858C34.0226 85.6139 35.774 86.5419 37.6097 87.3011C39.4454 87.1322 40.6965 87.5544 41.4474 88.5661C44.7847 89.4942 48.2048 90 51.6249 90C60.3842 90 68.8939 86.8789 75.5678 81.2277C75.3172 81.2277 75.0675 81.3122 74.817 81.3122C72.9812 81.6499 71.8137 80.8063 71.3134 78.9502C71.1464 78.191 70.8966 77.263 70.8966 76.2513C70.9802 74.2271 71.1472 72.371 71.3134 70.2624C71.3969 69.7565 71.4796 68.9974 71.4796 68.2382ZM85.4121 62.4173C85.4121 62.7551 85.3285 63.1765 85.3285 63.4298C85.245 63.8512 85.3285 64.189 85.4121 64.6948C85.4121 64.8637 85.4956 65.0326 85.4956 65.2851C85.7461 67.1412 85.4956 68.3218 84.7448 69.1654C83.9939 69.9246 82.7428 70.346 80.9071 70.1779C80.2398 70.1779 79.656 70.0935 78.8217 69.9246C77.487 69.6712 76.1524 69.3343 74.5672 69.1654L72.8986 68.8276C72.8986 69.6712 72.815 70.5993 72.815 71.3585C72.7315 73.7204 72.648 75.9135 72.7315 78.191C72.7315 78.8658 72.9821 79.8783 74.0661 79.8783C74.3167 79.8783 74.5664 79.7938 74.817 79.7094C75.4008 79.5405 75.9846 79.3716 76.7354 79.3716C77.0694 79.3716 77.4027 79.3716 77.6532 79.3716C83.0761 73.9729 86.8302 67.1404 88.3319 59.6331C87.414 59.6331 86.4961 59.8864 85.9123 60.2234C85.6626 60.3087 85.4956 61.5737 85.4121 62.4173ZM41.6136 15.4331C40.7792 16.7825 39.2776 17.3728 37.1921 16.9514C35.5234 17.7106 33.9383 18.4697 32.3531 19.3134C32.3531 19.5667 32.2696 19.9036 32.2696 20.157C32.2696 22.2656 32.7698 22.7723 34.4385 22.7723C34.7726 22.7723 35.1894 22.7723 35.6896 22.6878C35.9402 22.6878 36.2734 22.6034 36.4405 22.5189C36.691 22.4345 36.8572 22.4345 37.1078 22.4345C38.86 22.1812 40.1946 22.4345 40.9454 23.2781C41.6962 24.0373 41.9468 25.1342 41.9468 26.5681C41.9468 28.0865 41.6962 29.6048 41.4465 31.2076C41.2795 32.4726 41.0298 33.8229 40.9462 35.2568C41.6136 35.2568 42.1973 35.2568 42.9482 35.2568C43.699 35.2568 44.6169 35.2568 45.4512 35.2568C47.7037 35.2568 49.2889 35.2568 50.707 35.1724C51.4578 35.1724 52.0416 34.919 52.2922 34.5821C52.5427 34.1607 52.6262 33.654 52.3757 32.8104C51.9589 31.5454 52.1251 30.1115 52.2086 28.9301C52.2922 28.002 52.7924 26.9904 53.2935 26.4837C54.0444 25.7245 55.6295 25.4712 56.7971 25.4712C57.9647 25.4712 59.1331 25.7245 59.7169 26.1459C61.8024 27.4109 61.8859 29.4359 61.6353 31.0387V31.7135C61.4683 32.4726 61.3848 33.4007 61.3848 34.2443C61.3848 34.4977 61.9686 35.0035 62.1356 35.0879C62.8029 35.1724 63.3032 35.1724 63.9713 35.1724C65.64 35.1724 67.2252 35.0035 68.9766 34.919C69.8944 34.8346 70.9785 34.7502 71.9799 34.6657C71.8963 33.9065 71.8963 33.3163 71.8128 32.6415C71.6458 30.8698 71.4788 29.099 71.3961 27.4118C71.3126 25.9779 71.4796 24.7129 71.7301 23.6159C72.0642 22.182 73.0648 21.5917 74.4829 22.0976C74.6499 22.182 74.817 22.182 74.9832 22.2665C68.4763 17.0367 60.1337 14 51.624 14C48.204 14.0836 44.8674 14.4205 41.6136 15.4331ZM85.3285 41.9196C85.4121 43.7758 86.1629 44.3661 88.4154 44.3661C86.9137 36.6899 83.0761 29.7729 77.487 24.4587C76.6527 24.3742 75.7348 24.2898 75.0675 23.9528C74.3167 23.6995 73.8164 23.6995 73.5659 23.9528C73.3153 24.2062 73.2318 24.6276 73.2318 25.2178C73.3153 27.4954 73.3988 29.604 73.5659 31.8815C73.6494 32.6407 73.6494 33.5687 73.7329 34.4124C73.9835 34.4124 74.2332 34.3279 74.4837 34.3279C75.2346 34.2435 75.8184 34.2435 76.4857 34.2435H77.487C78.2379 34.2435 78.9052 34.2435 79.656 34.2435C81.0741 34.2435 82.2426 34.2435 83.4101 34.3279C84.328 34.4124 85.0788 34.6657 85.4956 35.1715C85.9123 35.7618 86.0794 36.521 85.8297 37.5335C85.3285 38.7985 85.245 40.2324 85.3285 41.9196ZM17.7541 35.4249C15.3346 40.5702 14 46.2222 14 52.0422C14 57.7778 15.2511 63.4298 17.7541 68.5751C18.0047 68.5751 18.1709 68.5751 18.4214 68.5751C19.1723 68.5751 19.589 68.4062 19.9231 67.9848C20.3399 67.5635 20.5069 66.8043 20.4234 65.7918C20.3399 65.117 20.2563 64.4423 20.2563 63.7676C20.1728 63.0084 20.0893 62.2493 20.0058 61.4901C19.9223 59.6339 20.7566 58.3689 22.5088 58.032C23.2596 57.8631 24.3445 57.6942 25.3451 57.6942H25.5121C26.9303 57.6942 28.0152 58.2 28.766 59.0437C29.5168 59.8873 29.7674 61.1523 29.6003 62.5862C29.5168 63.3454 29.3498 64.189 29.1001 64.9482C29.0165 65.454 28.8495 65.7918 28.766 66.2976C28.6825 66.9723 28.6825 67.3946 29.0165 67.7315C29.2671 67.9848 29.6003 68.1529 29.9344 68.1529H30.0179C32.3539 68.0684 34.6899 67.8151 37.1094 67.5626C37.9438 67.4782 38.8616 67.3937 39.696 67.3093C39.6125 67.0559 39.6125 66.8034 39.5289 66.5501C39.4454 65.8754 39.2784 65.2851 39.2784 64.694V63.6815C39.1949 61.3195 39.1114 58.9575 39.1949 56.68C39.2784 55.0772 40.1963 54.3181 41.8641 54.4869C43.6163 54.7403 45.2015 54.8247 46.6196 54.6558C47.3705 54.5714 47.7872 54.3181 48.2048 53.8967C48.7886 53.1375 48.9556 52.0405 48.8721 50.5222C48.6216 48.498 48.1213 48.0758 46.2029 48.1602C45.6191 48.1602 45.118 48.3291 44.5342 48.4136C43.8669 48.498 43.1996 48.6669 42.4487 48.6669H42.3652C41.0306 48.6669 40.1127 48.3291 39.5289 47.7388C38.9452 47.1486 38.7781 46.2205 38.7781 44.9555C38.8616 42.8469 38.9452 40.8218 39.1122 38.5443C39.1957 37.7007 39.1957 36.7726 39.2792 35.929C38.5284 35.8446 37.7776 35.929 36.9432 35.8446C34.9413 35.6757 32.9385 35.5912 30.8531 35.5912C29.9352 35.5912 29.3514 35.6757 29.0174 36.0971C28.6833 36.5185 28.6006 37.194 28.7668 38.2901C29.0174 39.6396 29.2671 41.0735 29.1009 42.4238C29.0174 43.3519 28.3501 44.7858 27.4322 45.0391C25.5965 45.5449 23.6781 45.7138 22.1764 45.3769C20.258 45.0391 19.1731 43.4371 19.4237 41.4121C19.5072 40.8218 19.5072 40.3152 19.5907 39.8093C19.6742 39.0502 19.6742 38.291 19.8412 37.4474C20.0083 36.6882 19.9248 36.1824 19.5907 35.8446C19.3401 35.5068 18.9234 35.3387 18.4231 35.3387C18.089 35.3387 17.7558 35.3387 17.5053 35.3387L17.7541 35.4249ZM18.5885 70.0935C21.5083 75.4921 25.7627 80.1316 30.8523 83.5897C30.8523 83.4208 30.8523 83.2519 30.9358 83.0838C31.2699 80.7219 32.7715 79.4569 35.1902 79.5413H35.6069C36.6918 79.6258 37.8594 79.6258 38.8608 79.9627C39.6951 80.2161 40.3625 80.1316 40.7792 79.7094C41.1133 79.3716 41.2795 78.8658 41.2795 78.1066C41.2795 75.8291 41.0289 73.7204 40.7792 71.4429C40.6957 70.5993 40.6122 69.7557 40.5287 68.9121L40.0284 68.9965C39.6116 68.9965 39.3611 69.081 39.194 69.081C38.4432 69.1654 37.5254 69.2499 36.7745 69.3343C34.8561 69.5032 32.9369 69.7557 31.102 69.8401C29.6838 69.9246 28.766 69.5868 28.2657 68.9965C27.6819 68.3218 27.5149 67.3937 27.6819 66.1287C27.7654 65.3695 27.9325 64.7793 28.0987 64.1045C28.1822 63.6831 28.3492 63.2609 28.4327 62.8395C28.6833 61.659 28.4327 60.1406 27.0981 59.8028C26.5143 59.7184 26.0132 59.6339 25.4294 59.6339C24.4281 59.6339 23.344 59.8873 22.6767 60.2242C22.2599 60.3931 22.1764 61.6581 22.0929 62.5862C22.0929 62.924 22.0094 63.3454 22.0094 63.5987C21.9259 64.0201 22.0094 64.3579 22.0929 64.8637C22.0929 65.0326 22.1764 65.2015 22.1764 65.454C22.427 67.3101 22.1764 68.4907 21.4256 69.3343C20.5904 69.7565 19.7561 70.009 18.5885 70.0935ZM30.9349 21.7598C30.8514 21.2539 30.8514 20.9162 30.7679 20.4103C25.5121 23.9528 21.1742 28.7612 18.2544 34.4132C18.6712 34.4132 19.0052 34.4132 19.422 34.4977C20.3399 34.5821 21.0907 34.8354 21.5074 35.3413C21.9242 35.9316 22.0912 36.6907 21.8415 37.7032C21.591 38.8838 21.5074 40.1496 21.591 41.9205C21.6745 43.7766 22.4253 44.3669 24.7613 44.3669H24.8448C27.1808 44.3669 27.7646 43.7766 27.8481 41.9205C27.9316 40.4866 27.8481 38.9682 27.7646 37.5343V37.281C27.6811 36.3529 27.9316 35.5938 28.4319 35.0879C28.9322 34.5821 29.5995 34.3288 30.6009 34.3288H31.3517C32.6028 34.3288 34.188 34.3288 35.8567 34.4132C36.9416 34.4977 37.7751 34.5821 38.6929 34.751C39.027 34.8354 39.4438 34.8354 39.7778 34.9199C39.8613 34.1607 40.1119 32.8957 40.3616 31.6299C40.7784 29.6901 41.1124 27.5807 41.1124 26.4845C41.0289 24.5448 40.3616 24.1226 39.2767 24.1226C38.9426 24.1226 38.5259 24.207 38.1091 24.2915C37.1078 24.4604 36.0237 24.6293 34.522 24.7129C32.5201 24.7965 31.269 23.6995 30.9349 21.7598Z" fill="white"/>
</svg>
