<svg width="491" height="110" viewBox="0 0 491 110" fill="none" xmlns="http://www.w3.org/2000/svg">
<g clip-path="url(#clip0_1861_186)">
<path d="M279.634 76C284.608 76 287.744 79.0411 287.744 83.4443C287.744 87.8475 284.608 90.6352 279.634 90.6352H276.15V98.1745H272V76H279.634ZM279.413 87.0556C281.915 87.0556 283.594 85.9785 283.594 83.4443C283.594 80.9418 281.915 79.833 279.413 79.833H276.15V87.0556H279.413ZM325.409 76H329.559V90.1283C329.559 95.5136 325.726 98.6497 321.132 98.6497C316.507 98.6497 312.674 95.5136 312.674 90.1283V76H316.824V90.1283C316.824 93.6129 319.042 94.7533 321.132 94.7533C323.223 94.7533 325.409 93.6129 325.409 90.1283V76ZM371.944 76L361.11 94.5949H372.071V98.1745H354.489L365.323 79.5479H355.091V76H371.944ZM413.664 76L402.83 94.5949H413.79V98.1745H396.209L407.043 79.5479H396.811V76H413.664ZM442.871 94.3415H451.867V98.1745H438.721V76H442.871V94.3415ZM481.106 94.3415H490.768V98.1745H480.472H476.956V76H481.106H490.483V79.833H481.106V85.1549H488.233V88.8929H481.106V94.3415Z" fill="black"/>
<path d="M155.42 11.8818V19.3774H141.752V63.3219H133.668V19.3774H120V11.8818H155.42ZM193.118 25.0358H201.055L177.76 77.2842H169.823L176.731 62.0727L160.197 25.0358H168.133L180.626 53.4013L193.118 25.0358ZM227.289 24.4479C235.961 24.4479 246.322 31.0616 246.322 44.2156C246.322 57.59 235.961 64.0568 227.289 64.0568C220.382 64.0568 215.826 60.0886 214.87 57.0022V77.2842H206.934V53.9892V25.1093H214.87V31.0616C215.826 28.5631 220.382 24.4479 227.289 24.4479ZM226.261 57.0022C232.213 57.0022 238.606 52.74 238.606 44.2156C238.606 35.7647 232.213 31.5026 226.261 31.5026C220.308 31.5026 214.503 35.6913 214.503 44.2156C214.503 52.8135 220.308 57.0022 226.261 57.0022ZM271.234 24.4479C279.905 24.4479 291.663 31.0616 289.826 47.0816H259.403C260.578 53.9157 266.016 57.2961 272.189 57.2961C277.26 57.2961 279.979 55.9733 282.771 53.7688L287.254 58.031C283.873 61.8522 279.023 64.0568 271.969 64.0568C262.269 64.0568 251.466 57.4431 251.466 44.2891C251.466 31.0616 262.563 24.4479 271.234 24.4479ZM271.234 31.2821C266.31 31.2821 260.799 34.589 259.476 41.2762H282.845C281.963 34.589 276.157 31.2821 271.234 31.2821ZM313.268 11C321.719 11 327.524 16.438 329.949 21.7289L323.923 25.1828C321.351 20.8471 318.044 18.2016 313.268 18.2016C308.491 18.2016 305.111 20.9941 305.111 24.8153C305.111 28.4162 307.389 30.6207 312.312 32.4579L315.913 33.7806C326.128 37.5284 331.345 41.9376 331.345 49.6536C331.345 59.1332 322.307 64.4242 313.562 64.4242C304.596 64.4242 297.395 59.0598 295.19 51.7847L301.51 48.5513C303.347 53.2544 307.315 57.0756 313.562 57.0756C318.706 57.0756 322.968 54.3567 322.968 49.727C322.968 44.8035 319.661 42.8194 313.782 40.6148L310.255 39.2921C302.539 36.4261 297.101 32.5314 297.101 24.5214C297.101 16.7319 304.156 11 313.268 11ZM356.257 24.4479C363.165 24.4479 369.117 27.5343 372.571 33.7071L366.398 36.4996C364.12 33.4132 361.034 31.5026 356.331 31.5026C350.672 31.5026 344.205 35.7647 344.205 44.2891C344.205 52.74 350.672 56.9287 356.331 56.9287C361.034 56.9287 364.12 55.0915 366.398 52.0051L372.644 54.7976C369.117 60.9704 363.238 63.9833 356.257 63.9833C347.586 63.9833 336.489 57.59 336.489 44.2891C336.489 31.0616 347.586 24.4479 356.257 24.4479ZM400.569 24.5214C401.377 24.5214 402.112 24.5214 402.847 24.6684V32.2374C402.112 32.0904 401.377 32.0904 400.789 32.0904C393.588 32.0904 387.709 37.2345 386.827 45.3179V63.3219H378.891V25.1093H386.827V34.8829C388.444 29.2245 393.367 24.5214 400.569 24.5214ZM417.03 11.3674V18.2751H409.093V11.3674H417.03ZM417.03 25.1093V63.3219H409.093V25.1093H417.03ZM445.469 24.4479C454.14 24.4479 464.502 31.0616 464.502 44.2156C464.502 57.59 454.14 64.0568 445.469 64.0568C438.561 64.0568 434.005 60.0886 433.05 57.0022V77.2842H425.113V53.9892V25.1093H433.05V31.0616C434.005 28.5631 438.561 24.4479 445.469 24.4479ZM444.44 57.0022C450.392 57.0022 456.786 52.74 456.786 44.2156C456.786 35.7647 450.392 31.5026 444.44 31.5026C438.488 31.5026 432.682 35.6913 432.682 44.2156C432.682 52.8135 438.488 57.0022 444.44 57.0022ZM490.589 31.723H482.506V53.1074C482.506 55.165 483.241 56.7817 485.592 56.7817C487.576 56.7817 488.973 56.4143 490.589 55.7529V62.4401C488.973 63.2485 486.841 63.7629 483.535 63.7629C478.758 63.7629 474.569 61.8522 474.569 53.4013V31.723H469.278V25.1093H474.569V16.144H482.506V25.1093H490.589V31.723Z" fill="black"/>
<path d="M105.269 45.2186C102.474 44.7318 100.893 42.4233 101.258 39.6268C101.38 38.7762 101.38 38.046 101.502 37.3171C101.623 36.2231 101.623 35.1291 101.867 33.9134C102.11 32.8193 101.988 32.0904 101.502 31.6036C101.136 31.1169 100.529 30.8747 99.8003 30.8747C96.5182 30.8747 93.4796 30.9964 90.0758 31.2398C88.9818 31.3615 87.6444 31.3615 86.4287 31.3615C86.4287 31.8482 86.5504 32.3338 86.5504 32.6989C86.6721 33.7929 86.7938 34.5218 86.7938 35.4941V36.1014C86.7938 39.8702 86.6721 43.8812 86.4287 47.7705C86.307 49.9586 84.8479 51.0526 82.5394 50.6875C80.5947 50.3224 78.5284 50.0802 76.097 49.8369C74.274 49.7152 73.18 50.5658 72.6932 52.5117C72.086 55.0648 72.2064 56.766 72.9366 57.7384C73.7872 58.7107 75.2463 59.0758 77.7994 58.9541C78.0428 58.9541 78.2862 58.9541 78.5284 58.9541H79.1356C79.6224 58.9541 79.9863 58.9541 80.3513 58.9541C85.8214 58.9541 87.1588 60.4132 87.4022 66.7339C87.5239 68.5569 87.2805 70.2593 87.1588 72.204C87.0371 72.8112 87.0371 73.6631 87.0371 74.2703C87.0371 74.8776 86.9154 75.3644 86.9154 76.0933L86.7938 76.8222C87.8878 77.0656 88.8601 77.1873 89.9541 77.4295C92.7494 78.0367 95.3025 78.5235 97.8556 78.7669C99.193 79.0103 100.287 78.7669 101.016 78.0379C101.623 77.4307 101.867 76.3367 101.745 74.8776C101.623 73.9053 101.502 72.9329 101.502 71.8389C101.38 70.7449 101.258 69.6509 101.136 68.5569C101.015 65.8821 102.23 64.0591 104.784 63.5735C106.243 63.2085 107.458 63.0868 108.552 63.0868C109.039 60.2915 109.281 57.495 109.281 54.8214C109.281 51.661 109.038 48.6224 108.431 45.462C107.457 45.4608 106.363 45.3403 105.269 45.2186ZM83.7527 78.1609C82.7803 78.0392 81.9297 77.9175 80.8357 77.7958C78.2826 77.4307 75.7307 77.0668 73.1776 77.0668C71.4763 76.9452 70.2606 77.3102 69.6521 78.1609C68.9232 79.0115 68.8015 80.2272 69.0449 82.0502L69.1666 82.6574C69.4099 83.8731 69.6533 85.3322 69.6533 86.6684C69.6533 90.6794 67.8304 92.6253 63.9398 92.7457H63.6965C62.1157 92.7457 60.2927 92.3807 58.2264 91.6517C56.0383 90.9228 54.9443 89.0986 55.1877 86.6684C55.3094 85.9395 55.3094 85.331 55.4311 84.4804C55.5528 83.3863 55.5528 82.0489 55.9179 80.9549C56.1612 79.8609 56.1612 78.8886 55.6745 78.2801C55.1877 77.7933 54.2154 77.5512 53.4864 77.5512C50.2044 77.5512 47.1657 77.7946 43.762 78.0379C42.5462 78.1596 41.2088 78.2813 39.9931 78.2813C40.1148 78.8886 40.2365 79.3754 40.3582 79.9826C40.6016 81.32 40.845 82.5357 40.9655 83.508C41.2088 85.331 41.4522 87.1552 41.5727 88.9781C41.6944 92.3819 41.0859 94.5699 39.7497 96.1495C38.2906 97.7303 35.7387 98.0941 32.4567 97.2435C32.335 97.2435 32.2133 97.2435 32.0916 97.2435H31.9699C28.5662 97.0001 26.8649 98.5809 26.7432 101.863C29.1746 103.2 31.7265 104.538 34.4013 105.632C37.0762 105.388 38.8991 105.997 39.9931 107.455C44.856 108.792 49.8393 109.521 54.8226 109.521C67.5858 109.521 79.985 105.023 89.7095 96.8796C89.3444 96.8796 88.9806 97.0013 88.6155 97.0013C85.9407 97.4881 84.2394 96.2724 83.5105 93.5976C83.2671 92.5036 82.9032 91.1662 82.9032 89.7083C83.0249 86.7913 83.2683 84.1165 83.5105 81.0778C83.6322 80.3489 83.7527 79.2549 83.7527 78.1609ZM104.053 69.7726C104.053 70.2593 103.932 70.8666 103.932 71.2317C103.81 71.8389 103.932 72.3257 104.053 73.0546C104.053 73.298 104.175 73.5414 104.175 73.9053C104.54 76.5801 104.175 78.2813 103.081 79.497C101.987 80.5911 100.164 81.1983 97.4893 80.9561C96.517 80.9561 95.6664 80.8344 94.4507 80.5911C92.506 80.226 90.5614 79.7404 88.2516 79.497L85.8202 79.0103C85.8202 80.226 85.6985 81.5634 85.6985 82.6574C85.5768 86.0612 85.4551 89.2215 85.5768 92.5036C85.5768 93.4759 85.9419 94.935 87.5215 94.935C87.8866 94.935 88.2504 94.8133 88.6155 94.6916C89.4661 94.4482 90.3168 94.2048 91.4108 94.2048C91.8975 94.2048 92.3831 94.2048 92.7482 94.2048C100.65 86.425 106.12 76.5789 108.308 65.7604C106.97 65.7604 105.633 66.1254 104.782 66.611C104.419 66.7339 104.175 68.5569 104.053 69.7726ZM40.2353 2.06513C39.0196 4.00978 36.8316 4.86041 33.7929 4.25316C31.3615 5.34718 29.0517 6.4412 26.742 7.65691C26.742 8.02199 26.6203 8.50754 26.6203 8.87262C26.6203 11.9113 27.3492 12.6414 29.7807 12.6414C30.2674 12.6414 30.8747 12.6414 31.6036 12.5198C31.9687 12.5198 32.4543 12.3981 32.6976 12.2764C33.0627 12.1547 33.3049 12.1547 33.67 12.1547C36.2231 11.7896 38.1677 12.1547 39.2618 13.3704C40.3558 14.4644 40.7209 16.0452 40.7209 18.1115C40.7209 20.2996 40.3558 22.4876 39.9919 24.7973C39.7485 26.6203 39.3847 28.5662 39.263 30.6325C40.2353 30.6325 41.0859 30.6325 42.1799 30.6325C43.274 30.6325 44.6114 30.6325 45.8271 30.6325C49.1091 30.6325 51.4189 30.6325 53.4852 30.5108C54.5792 30.5108 55.4299 30.1457 55.7949 29.6602C56.16 29.0529 56.2817 28.3228 55.9166 27.1071C55.3094 25.2841 55.5516 23.2178 55.6733 21.5153C55.7949 20.1779 56.5239 18.72 57.254 17.9898C58.3481 16.8958 60.6578 16.5308 62.3591 16.5308C64.0603 16.5308 65.7628 16.8958 66.6134 17.5031C69.6521 19.326 69.7738 22.2442 69.4087 24.554V25.5263C69.1653 26.6203 69.0436 27.9577 69.0436 29.1734C69.0436 29.5385 69.8943 30.2674 70.1377 30.3891C71.11 30.5108 71.8389 30.5108 72.8125 30.5108C75.2439 30.5108 77.5536 30.2674 80.1055 30.1457C81.4429 30.024 83.0225 29.9024 84.4816 29.7807C84.3599 28.6866 84.3599 27.836 84.2382 26.8637C83.9948 24.3106 83.7514 21.7587 83.631 19.3273C83.5093 17.2609 83.7527 15.4379 84.1177 13.8572C84.6045 11.7908 86.0624 10.9402 88.1287 11.6691C88.3721 11.7908 88.6155 11.7908 88.8577 11.9125C79.3766 4.37607 67.2207 0 54.8214 0C49.8381 0.120476 44.9765 0.60603 40.2353 2.06513ZM103.932 40.2341C104.053 42.9089 105.147 43.7595 108.43 43.7595C106.241 32.6976 100.65 22.7298 92.506 15.0717C91.2903 14.95 89.9529 14.8283 88.9806 14.3427C87.8866 13.9776 87.1576 13.9776 86.7925 14.3427C86.4275 14.7078 86.3058 15.315 86.3058 16.1657C86.4275 19.4477 86.5492 22.4864 86.7925 25.7685C86.9142 26.8625 86.9142 28.1999 87.0359 29.4156C87.401 29.4156 87.7649 29.2939 88.1299 29.2939C89.224 29.1722 90.0746 29.1722 91.0469 29.1722H92.506C93.6 29.1722 94.5724 29.1722 95.6664 29.1722C97.7327 29.1722 99.4352 29.1722 101.136 29.2939C102.474 29.4156 103.568 29.7807 104.175 30.5096C104.782 31.3602 105.026 32.4543 104.662 33.9134C103.932 35.7363 103.81 37.8027 103.932 40.2341ZM5.47009 30.8747C1.94465 38.2894 0 46.4343 0 54.8214C0 63.0868 1.82296 71.2317 5.47009 78.6464C5.83517 78.6464 6.07734 78.6464 6.44242 78.6464C7.53644 78.6464 8.14368 78.403 8.63046 77.7958C9.2377 77.1885 9.48109 76.0945 9.3594 74.6354C9.2377 73.6631 9.11601 72.6908 9.11601 71.7184C8.99432 70.6244 8.87262 69.5304 8.75093 68.4364C8.62924 65.7616 9.84495 63.9386 12.3981 63.4531C13.4921 63.2097 15.0729 62.9663 16.5308 62.9663H16.7741C18.8405 62.9663 20.4213 63.6952 21.5153 64.9109C22.6093 66.1267 22.9744 67.9496 22.731 70.016C22.6093 71.11 22.3659 72.3257 22.0021 73.4197C21.8804 74.1486 21.637 74.6354 21.5153 75.3644C21.3936 76.3367 21.3936 76.9451 21.8804 77.4307C22.2454 77.7958 22.731 78.0379 23.2178 78.0379H23.3395C26.7432 77.9163 30.147 77.5512 33.6724 77.1873C34.8881 77.0656 36.2255 76.9439 37.4412 76.8222C37.3195 76.4572 37.3195 76.0933 37.1978 75.7282C37.0762 74.7559 36.8328 73.9053 36.8328 73.0534V71.5943C36.7111 68.1906 36.5894 64.7868 36.7111 61.5048C36.8328 59.195 38.1702 58.101 40.6004 58.3444C43.1535 58.7095 45.4632 58.8312 47.5296 58.5878C48.6236 58.4661 49.2308 58.101 49.8393 57.4938C50.6899 56.3997 50.9333 54.819 50.8116 52.6309C50.4465 49.7139 49.7176 49.1055 46.9223 49.2272C46.0717 49.2272 45.3415 49.4706 44.4909 49.5923C43.5186 49.7139 42.5462 49.9573 41.4522 49.9573H41.3305C39.3859 49.9573 38.0485 49.4706 37.1978 48.6199C36.3472 47.7693 36.1038 46.4319 36.1038 44.6089C36.2255 41.5703 36.3472 38.6521 36.5906 35.37C36.7123 34.1543 36.7123 32.8169 36.834 31.6012C35.74 31.4795 34.6459 31.6012 33.4302 31.4795C30.5133 31.2361 27.5951 31.1144 24.5564 31.1144C23.219 31.1144 22.3684 31.2361 21.8816 31.8434C21.3948 32.4506 21.2743 33.4241 21.5165 35.0037C21.8816 36.9484 22.2454 39.0147 22.0033 40.9606C21.8816 42.298 20.9093 44.3643 19.5719 44.7294C16.897 45.4584 14.1018 45.7017 11.9137 45.2162C9.11844 44.7294 7.53765 42.4209 7.90273 39.5027C8.02443 38.6521 8.02443 37.9219 8.14612 37.193C8.26781 36.099 8.26781 35.0049 8.5112 33.7892C8.75458 32.6952 8.63289 31.9663 8.14612 31.4795C7.78104 30.9927 7.17379 30.7506 6.44485 30.7506C5.95808 30.7506 5.47253 30.7506 5.10745 30.7506L5.47009 30.8747ZM6.6858 80.8345C10.9402 88.6143 17.1392 95.3001 24.5552 100.283C24.5552 100.04 24.5552 99.7966 24.6769 99.5545C25.1636 96.1507 27.3517 94.3277 30.8759 94.4494H31.4832C33.0639 94.5711 34.7652 94.5711 36.2243 95.0567C37.44 95.4218 38.4123 95.3001 39.0196 94.6916C39.5064 94.2048 39.7485 93.4759 39.7485 92.3819C39.7485 89.0998 39.3834 86.0612 39.0196 82.7791C38.8979 81.5634 38.7762 80.3477 38.6545 79.132L37.9256 79.2537C37.3183 79.2537 36.9532 79.3754 36.7099 79.3754C35.6158 79.497 34.2784 79.6187 33.1844 79.7404C30.3891 79.9838 27.5926 80.3477 24.919 80.4694C22.8527 80.5911 21.5153 80.1043 20.7864 79.2537C19.9357 78.2813 19.6923 76.9439 19.9357 75.121C20.0574 74.027 20.3008 73.1763 20.543 72.204C20.6647 71.5967 20.908 70.9883 21.0297 70.381C21.3948 68.6798 21.0297 66.4917 19.0851 66.005C18.2345 65.8833 17.5043 65.7616 16.6537 65.7616C15.1946 65.7616 13.615 66.1267 12.6427 66.6122C12.0354 66.8556 11.9137 68.6786 11.792 70.016C11.792 70.5027 11.6703 71.11 11.6703 71.4751C11.5486 72.0823 11.6703 72.5691 11.792 73.298C11.792 73.5414 11.9137 73.7848 11.9137 74.1486C12.2788 76.8235 11.9137 78.5247 10.8197 79.7404C9.60278 80.3489 8.38707 80.7128 6.6858 80.8345ZM24.6757 11.1824C24.554 10.4534 24.554 9.96664 24.4323 9.2377C16.7741 14.3427 10.4534 21.2719 6.19903 29.4168C6.80628 29.4168 7.29305 29.4168 7.9003 29.5385C9.2377 29.6602 10.3317 30.0253 10.939 30.7542C11.5462 31.6048 11.7896 32.6989 11.4257 34.158C11.0607 35.8592 10.939 37.6834 11.0607 40.2353C11.1824 42.9101 12.2764 43.7607 15.6801 43.7607H15.8018C19.2056 43.7607 20.0562 42.9101 20.1779 40.2353C20.2996 38.169 20.1779 35.9809 20.0562 33.9146V33.5495C19.9345 32.2121 20.2996 31.1181 21.0285 30.3891C21.7575 29.6602 22.7298 29.2951 24.1889 29.2951H25.2829C27.1059 29.2951 29.4156 29.2951 31.847 29.4168C33.4278 29.5385 34.6423 29.6602 35.9797 29.9036C36.4665 30.0253 37.0737 30.0253 37.5605 30.147C37.6822 29.0529 38.0473 27.23 38.4111 25.4058C39.0184 22.6105 39.5051 19.5706 39.5051 17.9911C39.3835 15.1958 38.4111 14.5873 36.8303 14.5873C36.3436 14.5873 35.7363 14.709 35.1291 14.8307C33.67 15.0741 32.0904 15.3175 29.9024 15.438C26.9854 15.5584 25.1624 13.9776 24.6757 11.1824Z" fill="#013F7A"/>
</g>
<defs>
<clipPath id="clip0_1861_186">
<rect width="491" height="110" fill="white"/>
</clipPath>
</defs>
</svg>
